<svg width="15" height="15" viewBox="0 0 15 15" fill="none" xmlns="http://www.w3.org/2000/svg" alt="Party emoji" class="DeckEndCard__PartyEmoji-sc-2s9y69-2 imUGGQ"><path d="M1.62505 13.9661L9.85439 10.2342C10.1415 10.0907 10.1893 9.75578 9.99793 9.5644L5.45265 5.01913C5.26127 4.82774 4.87851 4.87559 4.78282 5.16266L1.0509 13.392C0.859524 13.7748 1.24228 14.1097 1.62505 13.9661Z" fill="#FBEED7" stroke="#FEB32B" stroke-miterlimit="10"></path><path d="M2.8208 9.42092L4.7346 12.5308L7.70099 11.1912L4.39969 5.97607L2.8208 9.42092Z" stroke="#FEB32B" stroke-miterlimit="10"></path><path d="M8.8021 3.53559C9.40985 3.53559 9.90253 3.04291 9.90253 2.43515C9.90253 1.8274 9.40985 1.33472 8.8021 1.33472C8.19434 1.33472 7.70166 1.8274 7.70166 2.43515C7.70166 3.04291 8.19434 3.53559 8.8021 3.53559Z" fill="#0586D4"></path><path d="M11.912 11.813C12.3876 11.813 12.7732 11.4274 12.7732 10.9518C12.7732 10.4762 12.3876 10.0906 11.912 10.0906C11.4364 10.0906 11.0508 10.4762 11.0508 10.9518C11.0508 11.4274 11.4364 11.813 11.912 11.813Z" fill="#5CDDB6"></path><path d="M13.5862 5.25821C13.5862 5.64097 13.2992 5.92804 12.9164 5.92804C12.5337 5.92804 12.2466 5.64097 12.2466 5.25821C12.2466 4.87545 12.5337 4.58838 12.9164 4.58838C13.2992 4.58838 13.5862 4.87545 13.5862 5.25821Z" fill="#FC695D"></path><path d="M5.88379 5.21036C6.12301 4.77976 6.45793 3.96639 6.45793 2.9138C6.45793 2.10044 6.31439 1.43061 6.17086 1" stroke="#FEB32B" stroke-miterlimit="10" stroke-linecap="round"></path><path d="M9.9502 8.94226C10.2373 8.70303 10.9549 8.17674 12.0554 8.0332C12.9166 7.93751 13.5864 8.17674 13.8735 8.32028" stroke="#FEB32B" stroke-miterlimit="10" stroke-linecap="round"></path><path d="M8.18018 6.83728C8.75432 6.02391 9.51984 5.06701 10.5724 4.15796C11.3858 3.39243 12.1992 2.77045 12.9168 2.33984" stroke="#FEB32B" stroke-miterlimit="10" stroke-linecap="round"></path><path d="M3.25234 4.58818C3.6487 4.58818 3.97002 4.26687 3.97002 3.87051C3.97002 3.47415 3.6487 3.15283 3.25234 3.15283C2.85598 3.15283 2.53467 3.47415 2.53467 3.87051C2.53467 4.26687 2.85598 4.58818 3.25234 4.58818Z" fill="#FEB32B"></path></svg>