<svg width="26" height="26" viewBox="0 0 26 26" fill="none" xmlns="http://www.w3.org/2000/svg">
<path d="M24.9508 13C25.0703 14.26 25.1301 17.32 23.1582 20.2C20.051 24.82 14.3146 25 13 25C11.6854 25 5.94903 24.82 2.84183 20.2C0.869948 17.26 0.929702 14.14 1.04921 13C1.52724 7.78 5.88928 1 13 1C20.29 1 24.4728 7.9 24.9508 13Z" fill="#FFCA05" stroke="#5B5B5B" stroke-width="1.5" stroke-miterlimit="10"/>
<path d="M15.0549 14.0002C14.71 14.92 13.7327 15.4948 12.7555 15.4374C11.8357 15.3799 11.0884 14.805 10.801 14.0002" stroke="#5B5B5B" stroke-width="1.5" stroke-miterlimit="10" stroke-linecap="round"/>
<path d="M7.05156 11.4135C6.87911 10.1489 7.85634 9.11414 8.77609 9.11414C9.69583 9.11414 10.6731 10.1489 10.5006 11.4135" stroke="#5B5B5B" stroke-width="1.5" stroke-miterlimit="10" stroke-linecap="round"/>
<path d="M15.0994 11.4135C14.927 10.1489 15.9042 9.11414 16.8239 9.11414C17.7437 9.11414 18.7209 10.1489 18.5485 11.4135" stroke="#5B5B5B" stroke-width="1.5" stroke-miterlimit="10" stroke-linecap="round"/>
<path d="M6.27747 7.38945C6.33495 7.27448 6.62237 6.52718 7.42715 6.23976C7.94451 6.06731 8.40438 6.18228 8.57684 6.23976" stroke="#5B5B5B" stroke-width="1.5" stroke-miterlimit="10" stroke-linecap="round"/>
<path d="M19.4988 7.38945C19.4413 7.27448 19.1539 6.52718 18.3491 6.23976C17.8318 6.06731 17.3719 6.18228 17.1995 6.23976" stroke="#5B5B5B" stroke-width="1.5" stroke-miterlimit="10" stroke-linecap="round"/>
</svg>
