<svg width="16" height="16" viewBox="0 0 16 16" fill="none" xmlns="http://www.w3.org/2000/svg">
<path d="M12.1867 7.61574V10.2668C12.1867 12.6642 9.96675 14.6864 7.09336 14.6864C4.21804 14.6864 2 12.6626 2 10.2942V7.64308C2 7.42718 2.2245 7.13184 2.65725 7.13184H11.5536C11.9737 7.13184 12.1867 7.40994 12.1867 7.61574Z" fill="#C59771" stroke="#8B5C34" stroke-miterlimit="10"/>
<path d="M11.7478 8.62748C11.9428 8.55769 12.1379 8.53442 12.3546 8.53442C13.5466 8.53442 14.5001 9.55804 14.5001 10.8376C14.5001 12.1171 13.5466 13.1407 12.3546 13.1407C11.7911 13.1407 11.271 12.9081 10.8809 12.5126" stroke="#8B5C34" stroke-miterlimit="10"/>
<path d="M7.39596 0.976318C6.88303 1.73222 6.85603 2.24515 6.93702 2.59611C7.01801 3.02805 7.23398 3.19003 7.36896 3.67597C7.50395 4.2429 7.42296 4.75583 7.31497 5.07979" stroke="#8B5C34" stroke-miterlimit="10" stroke-linecap="round"/>
</svg>
