<svg width="16" height="16" viewBox="0 0 16 16" fill="none" xmlns="http://www.w3.org/2000/svg">
<path fill-rule="evenodd" clip-rule="evenodd" d="M8 14C11.3137 14 14 11.3137 14 8C14 4.68629 11.3137 2 8 2C4.68629 2 2 4.68629 2 8C2 11.3137 4.68629 14 8 14ZM7.99987 12.0651C10.2446 12.0651 12.0644 10.2453 12.0644 8.00053C12.0644 5.75576 10.2446 3.93602 7.99987 3.93602C5.75509 3.93602 3.93535 5.75576 3.93535 8.00053C3.93535 10.2453 5.75509 12.0651 7.99987 12.0651Z" fill="#FFCA05"/>
<circle cx="7.99999" cy="8.00005" r="3.45" fill="#FFCA05" stroke="#BE9A15" stroke-width="1.5"/>
<circle cx="8" cy="8" r="6.5" stroke="#BE9A15"/>
</svg>
