<svg width="14" height="14" fill="none" xmlns="http://www.w3.org/2000/svg" alt="Location Icon" class="CitySelect__StyledLocationIcon-z276a7-1 eYraCh"><path fill-rule="evenodd" clip-rule="evenodd" d="M3 5.905C3 3.757 4.845 2 7.1 2s4.1 1.757 4.1 3.905c0 2.147-4.1 6.345-4.1 6.345S3 8.052 3 5.905zm4.1 1.903a1.708 1.708 0 100-3.416 1.708 1.708 0 000 3.416z" fill="#F05B46"></path><path d="M7.1 12.25l-.358.35a.5.5 0 00.716 0l-.358-.35zm0-10.75c-2.508 0-4.6 1.958-4.6 4.405h1C3.5 4.056 5.098 2.5 7.1 2.5v-1zm4.6 4.405C11.7 3.458 9.608 1.5 7.1 1.5v1c2.002 0 3.6 1.556 3.6 3.405h1zM7.1 12.25l.358.35v-.001l.003-.003a1.28 1.28 0 01.01-.01l.036-.037.133-.14a31.629 31.629 0 001.905-2.219c.52-.67 1.05-1.418 1.452-2.146.393-.71.703-1.47.703-2.14h-1c0 .405-.202.976-.578 1.656-.367.664-.862 1.367-1.367 2.016a30.662 30.662 0 01-2.01 2.322l-.002.002.357.35zM2.5 5.905c0 .67.31 1.428.703 2.14.402.726.932 1.475 1.452 2.145a31.629 31.629 0 002.038 2.359l.036.037.01.01.002.002.001.001.358-.349.358-.35c-.001 0-.002 0-.003-.002a1.098 1.098 0 00-.04-.042l-.127-.133a30.662 30.662 0 01-1.843-2.147c-.505-.649-1-1.352-1.367-2.016C3.702 6.88 3.5 6.31 3.5 5.905h-1zm5.808.195c0 .667-.54 1.208-1.208 1.208v1c1.22 0 2.208-.988 2.208-2.208h-1zM7.1 4.892c.667 0 1.208.54 1.208 1.208h1c0-1.22-.988-2.208-2.208-2.208v1zM5.892 6.1c0-.667.54-1.208 1.208-1.208v-1c-1.22 0-2.208.988-2.208 2.208h1zM7.1 7.308A1.208 1.208 0 015.892 6.1h-1c0 1.22.988 2.208 2.208 2.208v-1z" fill="#5B5B5B"></path></svg>