<svg width="16" height="17" viewBox="0 0 16 17" fill="none" xmlns="http://www.w3.org/2000/svg">
<mask id="mask0" mask-type="alpha" maskUnits="userSpaceOnUse" x="2" y="4" width="12" height="9">
<rect x="2.5" y="4.06836" width="11" height="8" rx="1.5" fill="#456ADD"/>
</mask>
<g mask="url(#mask0)">
<path fill-rule="evenodd" clip-rule="evenodd" d="M2.50031 5.53766L6.89183 9.13072C7.53647 9.65816 8.46353 9.65816 9.10817 9.13072L13.4997 5.53766C13.4999 5.54787 13.5 5.5581 13.5 5.56836V10.5684C13.5 11.3968 12.8284 12.0684 12 12.0684H4C3.17157 12.0684 2.5 11.3968 2.5 10.5684V5.56836C2.5 5.5581 2.5001 5.54787 2.50031 5.53766ZM3.29076 4.2463C3.50194 4.13277 3.74345 4.06836 4 4.06836H12C12.2566 4.06836 12.4981 4.13277 12.7092 4.2463L8.15831 7.96979C8.06622 8.04514 7.93378 8.04514 7.84169 7.96979L3.29076 4.2463Z" fill="#456ADD"/>
</g>
</svg>
